<svg xmlns="http://www.w3.org/2000/svg" viewBox="0 0 100 100"><rect width="100" height="100" rx="22" fill="#0c0c0d"/><g transform="translate(8 6) scale(.86)" color="#f5efe3">
<path fill="#7a3b8f" d="M48 83C31 86 14 76 5 58c11 12 27 18 44 17z"/><path fill="#ffd023" d="M41 81C27 63 20 39 22 11c5 25 13 46 29 65z"/><path fill="#1c9be6" d="M45 81c5-25 11-51 21-78-3 28-5 53-8 77z"/><path fill="#1c9be6" d="M43 79c13-8 28-5 38-13-2 13-18 21-36 19z"/><path fill="#e6257c" d="M57 79c7-16 17-30 30-41-9 14-15 27-20 42z"/><path fill="#f5efe3" d="M9 89c27-3 57-23 87-60C69 68 39 91 9 93z"/></g></svg>
